<!DOCTYPE svg PUBLIC "-//W3C//DTD SVG 20010904//EN" "http://www.w3.org/TR/2001/REC-SVG-20010904/DTD/svg10.dtd">
<svg version="1.0" xmlns="http://www.w3.org/2000/svg" width="1080px" height="1059px" viewBox="0 0 10800 10590" preserveAspectRatio="xMidYMid meet">
<g id="layer101" fill="#020202" stroke="none">
 <path d="M5220 8574 c-370 -32 -574 -70 -851 -160 -822 -264 -1519 -834 -1948 -1591 -54 -95 -149 -291 -183 -377 l-19 -49 67 -100 66 -100 44 113 c396 1009 1257 1752 2312 1994 246 57 374 70 697 70 196 1 333 -4 395 -12 771 -107 1390 -409 1915 -936 313 -314 537 -648 704 -1051 46 -109 122 -340 141 -428 8 -32 17 -60 22 -63 5 -3 51 -3 102 1 l94 7 -34 127 c-193 727 -598 1345 -1194 1820 -491 392 -1095 641 -1735 716 -126 15 -503 27 -595 19z"/>
 <path d="M1576 6703 c-4 -5 -11 -8 -14 -8 -21 -2 -126 -42 -187 -72 -103 -51 -169 -107 -218 -182 -92 -141 -112 -221 -111 -451 1 -205 24 -337 98 -562 163 -493 425 -917 796 -1289 205 -205 356 -315 574 -419 208 -100 420 -147 614 -137 181 8 266 51 292 146 16 60 -9 175 -64 300 -24 54 -202 368 -397 697 -194 329 -391 665 -438 746 l-86 147 -212 1 -211 0 244 -412 c134 -226 244 -415 244 -420 0 -4 -127 -8 -283 -8 l-283 0 -81 138 c-221 373 -410 812 -470 1092 -26 123 -25 353 2 435 27 83 90 174 147 210 26 17 49 36 52 43 6 14 3 16 -8 5z m1119 -2246 c253 -440 387 -681 401 -721 40 -113 -50 -100 -261 38 -240 157 -528 459 -754 790 -44 66 -81 123 -81 128 0 4 125 8 278 8 l277 0 140 -243z"/>
 <path d="M4243 5531 c-51 -23 -74 -57 -81 -116 -4 -43 -22 -59 -37 -35 -12 19 -139 83 -211 106 -196 62 -334 8 -334 -133 l0 -53 -82 63 c-179 135 -343 185 -470 141 -55 -18 -113 -73 -129 -122 -19 -57 -6 -184 30 -292 60 -179 164 -341 331 -514 206 -214 428 -336 615 -340 94 -1 146 19 176 68 10 17 21 31 24 31 3 0 87 -151 188 -335 l182 -335 188 -3 c103 -1 187 -1 187 1 0 2 -193 346 -430 765 -236 419 -432 773 -436 787 -4 18 -1 32 11 45 28 31 90 26 166 -12 52 -27 69 -42 88 -78 13 -25 136 -244 274 -487 l251 -443 177 0 c98 0 180 3 182 8 2 4 -50 102 -116 217 -344 604 -432 772 -422 805 8 25 55 42 107 39 38 -3 43 -1 40 16 -7 38 -63 104 -123 144 -113 76 -258 101 -346 62z m-773 -283 c30 -17 84 -61 120 -97 56 -58 89 -110 233 -370 150 -269 168 -307 163 -336 -9 -47 -28 -59 -81 -52 -75 11 -144 53 -235 146 -123 124 -289 379 -354 543 -64 162 14 246 154 166z"/>
 <path d="M6700 5528 c-64 -34 -82 -74 -77 -170 3 -72 -2 -93 -18 -68 -8 14 -114 85 -189 127 -228 130 -511 162 -637 72 -38 -27 -79 -114 -79 -169 0 -22 -2 -40 -5 -40 -2 0 -35 22 -72 49 -190 138 -386 211 -565 211 -205 0 -289 -79 -290 -270 0 -73 5 -98 34 -176 45 -119 108 -226 212 -356 185 -230 483 -454 671 -504 178 -48 318 18 350 163 18 85 -67 223 -160 259 -48 18 -148 15 -168 -5 -6 -6 6 -31 38 -73 49 -65 84 -131 85 -159 0 -24 -27 -42 -61 -41 -133 4 -474 401 -579 673 -54 141 -50 212 14 247 41 22 168 21 256 -3 67 -18 224 -90 238 -109 5 -6 15 -31 22 -56 85 -276 392 -629 705 -812 124 -71 190 -93 295 -93 77 0 102 4 134 21 52 27 92 78 107 136 11 41 10 55 -5 104 -22 71 -89 146 -152 170 -47 18 -147 15 -167 -5 -6 -6 6 -30 36 -68 102 -131 114 -205 33 -205 -51 0 -117 42 -214 136 -241 233 -451 617 -403 734 20 48 65 67 156 66 93 -2 182 -23 271 -65 105 -50 177 -103 203 -151 13 -24 128 -226 255 -450 l231 -408 177 0 c97 0 179 3 181 8 3 4 -40 86 -95 182 -363 638 -454 812 -441 846 7 20 58 36 102 33 22 -2 43 0 47 4 4 4 -10 32 -30 62 -90 136 -323 215 -446 153z"/>
 <path d="M7512 5522 c-73 -27 -122 -69 -157 -137 -25 -49 -31 -72 -33 -146 -12 -282 162 -611 442 -835 162 -130 327 -190 499 -182 103 5 150 23 204 80 40 41 53 76 53 139 l0 49 -32 -20 c-48 -29 -157 -28 -223 4 -197 92 -492 442 -600 710 -43 106 -53 172 -31 213 17 35 33 43 80 43 107 0 262 -117 366 -277 102 -155 170 -408 127 -467 -10 -14 -23 -17 -45 -14 -18 2 -32 1 -32 -2 0 -17 105 -103 153 -125 75 -35 158 -35 194 1 24 24 25 30 20 102 -10 140 -104 378 -203 512 -174 237 -374 355 -619 366 -91 4 -119 2 -163 -14z"/>
 <path d="M9077 5510 c-47 -15 -95 -58 -107 -96 -7 -22 -10 -65 -8 -104 6 -85 64 -208 203 -435 118 -192 154 -266 162 -333 5 -45 3 -51 -17 -62 -30 -16 -101 -6 -149 21 -49 27 -135 165 -488 779 l-129 225 -177 3 c-97 1 -177 -1 -177 -6 0 -5 157 -287 348 -628 l349 -619 176 -3 c98 -1 177 1 177 5 0 5 -11 27 -25 51 -26 46 -18 53 26 21 91 -64 234 -104 330 -90 139 19 176 92 129 250 -24 81 -77 184 -210 411 -150 255 -173 316 -133 355 13 13 30 16 74 13 75 -5 146 -53 225 -149 52 -64 59 -69 95 -69 23 0 39 5 39 12 0 18 -105 152 -183 234 -80 85 -189 162 -274 194 -64 25 -208 36 -256 20z"/>
 <path d="M8127 4120 c-55 -10 -127 -42 -151 -69 -16 -18 -15 -19 26 -25 25 -4 110 -42 203 -91 232 -123 273 -139 370 -139 85 0 115 10 174 60 66 55 64 57 -67 123 -142 71 -298 125 -405 140 -86 12 -82 12 -150 1z"/>
 <path d="M4960 4082 c-62 -30 -80 -112 -45 -196 21 -51 99 -126 157 -154 55 -25 158 -30 196 -8 37 20 62 66 62 115 0 161 -231 313 -370 243z"/>
 <path d="M7420 4082 c-44 -21 -60 -53 -60 -117 0 -128 139 -255 280 -255 105 0 150 42 150 138 0 154 -234 302 -370 234z"/>
 <path d="M8205 3381 c-55 -6 -61 -9 -90 -47 -16 -23 -59 -81 -94 -129 -203 -277 -484 -546 -781 -747 -471 -319 -989 -500 -1569 -549 -167 -14 -512 -6 -671 16 -842 115 -1583 534 -2113 1193 -62 77 -98 114 -116 118 -57 12 -217 57 -233 66 -29 14 -22 -8 24 -75 200 -297 479 -594 764 -813 494 -380 1074 -615 1704 -690 175 -21 561 -24 725 -6 433 49 788 149 1160 326 592 283 1121 767 1459 1334 8 13 -52 14 -169 3z"/>
 </g>

</svg>