<!DOCTYPE svg PUBLIC "-//W3C//DTD SVG 20010904//EN" "http://www.w3.org/TR/2001/REC-SVG-20010904/DTD/svg10.dtd">
<svg version="1.0" xmlns="http://www.w3.org/2000/svg" width="469px" height="473px" viewBox="0 0 4690 4730" preserveAspectRatio="xMidYMid meet">
<g id="layer101" fill="#000000" stroke="none">
 <path d="M1304 4529 c-4 -7 1 -16 10 -21 13 -7 16 -27 16 -118 0 -103 1 -110 20 -110 19 0 20 7 20 114 0 107 -1 116 -22 130 -27 19 -35 20 -44 5z"/>
 <path d="M780 4453 c-51 -19 -72 -80 -46 -131 19 -36 33 -42 109 -40 l57 2 0 83 0 82 -27 -1 c-16 -1 -39 1 -53 5 -14 3 -32 3 -40 0z m60 -33 c45 -24 26 -110 -25 -110 -53 0 -76 74 -33 104 26 19 33 19 58 6z"/>
 <path d="M1163 4450 c-56 -23 -69 -114 -22 -152 24 -20 79 -24 96 -7 8 8 13 8 17 0 4 -6 14 -11 22 -11 11 0 14 18 14 85 l0 85 -27 -1 c-16 -1 -39 1 -53 4 -14 3 -35 2 -47 -3z m79 -44 c12 -17 9 -71 -4 -84 -32 -32 -88 -1 -88 48 0 49 67 75 92 36z"/>
 <path d="M1460 4453 c-92 -34 -73 -173 23 -173 98 0 131 129 42 165 -37 16 -42 17 -65 8z m58 -39 c43 -30 20 -104 -32 -104 -32 0 -46 19 -46 62 0 31 5 41 23 48 30 12 30 12 55 -6z"/>
 <path d="M1763 4445 c-33 -14 -46 -41 -45 -90 1 -40 42 -75 88 -75 43 0 87 39 82 73 -3 20 -9 22 -70 25 -72 3 -79 9 -50 35 25 22 48 21 72 -3 20 -20 50 -27 50 -12 -1 16 -28 42 -54 52 -34 12 -34 12 -73 -5z m87 -98 c0 -38 -71 -52 -90 -18 -15 30 -14 31 40 31 34 0 50 -4 50 -13z"/>
 <path d="M1960 4453 c-20 -7 -50 -34 -50 -45 0 -15 38 -8 44 8 8 20 50 14 54 -8 2 -11 -8 -20 -35 -28 -48 -16 -63 -28 -63 -51 0 -27 28 -49 64 -49 32 0 66 25 66 48 0 17 -27 15 -34 -3 -9 -23 -56 -19 -56 5 0 14 9 21 36 26 63 12 81 74 27 95 -27 10 -31 10 -53 2z"/>
 <path d="M2195 4451 c-42 -18 -59 -62 -44 -115 12 -43 41 -57 114 -53 l60 3 3 82 3 82 -33 -2 c-18 -1 -44 1 -58 5 -14 3 -34 2 -45 -2z m75 -41 c53 -53 -16 -134 -72 -83 -10 9 -18 27 -18 40 0 26 32 63 55 63 8 0 24 -9 35 -20z"/>
 <path d="M2644 4450 c-56 -22 -72 -103 -29 -145 48 -49 145 -18 145 46 l0 29 -66 0 c-57 0 -65 2 -62 17 2 10 15 22 30 27 23 8 32 6 51 -12 40 -38 64 -24 30 16 -21 24 -69 35 -99 22z m79 -96 c3 -4 2 -15 -4 -25 -18 -34 -89 -19 -89 18 0 13 80 19 93 7z"/>
 <path d="M2820 4447 c-28 -14 -40 -47 -17 -47 8 0 20 7 27 15 16 19 55 16 55 -4 0 -15 -12 -23 -62 -41 -27 -10 -33 -18 -33 -41 0 -31 23 -49 64 -49 26 0 66 31 66 50 0 16 -30 12 -36 -5 -4 -9 -19 -15 -36 -15 -45 0 -32 29 22 49 35 13 46 22 48 42 5 43 -52 70 -98 46z"/>
 <path d="M2995 4451 c-42 -18 -59 -62 -44 -115 12 -43 41 -57 114 -53 l60 3 3 82 3 82 -33 -2 c-18 -1 -44 1 -58 5 -14 3 -34 2 -45 -2z m75 -41 c53 -53 -16 -134 -72 -83 -10 9 -18 27 -18 40 0 26 32 63 55 63 8 0 24 -9 35 -20z"/>
 <path d="M3410 4453 c-51 -19 -72 -80 -46 -131 8 -16 23 -32 31 -36 26 -10 70 -7 82 5 8 8 13 8 17 0 4 -6 14 -11 22 -11 11 0 14 18 14 85 l0 85 -27 -1 c-16 -1 -39 1 -53 4 -14 3 -32 3 -40 0z m60 -33 c45 -24 26 -110 -25 -110 -53 0 -76 74 -33 104 26 19 33 19 58 6z"/>
 <path d="M3694 4453 c-62 -12 -81 -106 -31 -149 56 -48 137 -20 137 46 l0 30 -65 0 c-68 0 -77 6 -47 33 25 23 48 21 69 -3 20 -23 43 -26 43 -7 0 32 -59 60 -106 50z m76 -106 c0 -38 -71 -52 -90 -18 -15 30 -14 31 40 31 34 0 50 -4 50 -13z"/>
 <path d="M3880 4453 c-20 -8 -50 -34 -50 -45 0 -14 38 -9 44 7 3 8 17 15 31 15 22 0 26 -4 23 -22 -2 -17 -13 -25 -41 -31 -50 -12 -69 -47 -42 -77 33 -37 115 -18 115 26 0 19 -26 18 -34 -1 -3 -8 -17 -15 -31 -15 -43 0 -27 33 23 48 68 22 69 82 2 96 -14 3 -32 2 -40 -1z"/>
 <path d="M940 4335 c0 -96 3 -115 15 -115 12 0 15 19 15 115 0 96 -3 115 -15 115 -12 0 -15 -19 -15 -115z"/>
 <path d="M1020 4380 c0 -40 -4 -70 -10 -70 -5 0 -10 -7 -10 -15 0 -8 4 -15 9 -15 5 0 11 -10 15 -23 7 -28 54 -53 70 -37 7 7 4 15 -12 26 -27 19 -28 34 -2 34 11 0 20 5 20 11 0 6 -9 13 -20 16 -18 5 -20 14 -20 74 0 62 -2 69 -20 69 -18 0 -20 -7 -20 -70z"/>
 <path d="M1600 4370 c0 -65 3 -82 16 -87 9 -3 20 0 24 7 5 8 9 9 14 1 10 -16 46 -13 46 3 0 8 -12 21 -27 28 -25 12 -28 19 -31 71 -3 49 -6 57 -22 57 -18 0 -20 -7 -20 -80z"/>
 <path d="M2360 4370 c0 -65 3 -82 16 -87 9 -3 19 -1 23 5 4 7 12 8 21 2 8 -6 27 -10 43 -10 20 0 27 -5 27 -20 0 -11 6 -20 14 -20 7 0 16 9 19 20 3 12 14 20 26 20 12 0 21 6 21 15 0 9 -9 15 -25 15 -23 0 -25 4 -25 43 0 47 7 60 33 70 27 10 20 27 -11 27 -41 0 -52 -17 -52 -83 l0 -59 -32 6 c-49 10 -58 23 -58 82 0 47 -2 54 -20 54 -18 0 -20 -7 -20 -80z"/>
 <path d="M3160 4366 l0 -83 64 -1 c83 -2 99 14 104 104 4 60 3 64 -17 64 -19 0 -21 -6 -21 -58 0 -62 -11 -82 -45 -82 -34 0 -45 20 -45 82 0 51 -2 58 -20 58 -18 0 -20 -7 -20 -84z"/>
 <path d="M3570 4334 c0 -105 2 -115 18 -112 15 3 17 18 20 116 3 107 2 112 -18 112 -19 0 -20 -6 -20 -116z"/>
 <path d="M1332 4233 c2 -10 10 -18 18 -18 8 0 16 8 18 18 2 12 -3 17 -18 17 -15 0 -20 -5 -18 -17z"/>
 <path d="M1630 4035 c-9 -11 -26 -13 -76 -8 -81 7 -139 -13 -188 -67 -82 -91 -67 -224 33 -295 57 -40 166 -48 227 -17 102 52 142 167 93 264 -16 32 -19 46 -11 59 8 13 4 23 -22 48 -37 35 -39 36 -56 16z m-96 -104 c3 -4 -3 -16 -14 -26 -27 -24 -25 -36 11 -64 l30 -24 30 29 c25 24 31 26 39 14 34 -54 -31 -140 -105 -140 -34 0 -82 25 -95 49 -15 30 -12 94 6 120 9 13 31 29 48 37 37 16 43 17 50 5z"/>
 <path d="M730 3830 l0 -200 123 0 c137 0 172 12 202 69 22 43 19 129 -5 168 -29 49 -64 66 -144 72 l-71 6 -3 43 -3 42 -50 0 -49 0 0 -200z m222 -7 c10 -9 18 -29 18 -44 0 -39 -36 -61 -92 -57 l-43 3 -3 58 -3 57 52 0 c35 0 59 -6 71 -17z"/>
 <path d="M1147 4023 c-4 -3 -7 -93 -7 -200 l0 -193 55 0 55 0 0 200 0 200 -48 0 c-27 0 -52 -3 -55 -7z"/>
 <path d="M1891 4012 c-82 -41 -111 -118 -111 -294 l0 -88 55 0 55 0 0 115 c0 132 11 165 61 185 28 12 36 11 68 -6 48 -25 60 -64 60 -191 l1 -103 50 0 50 0 0 123 c0 97 -4 130 -19 162 -22 47 -64 89 -104 104 -43 17 -128 13 -166 -7z"/>
 <path d="M2240 3830 l0 -200 50 0 50 0 0 200 0 200 -50 0 -50 0 0 -200z"/>
 <path d="M2430 3830 l0 -200 50 0 49 0 3 153 3 152 103 3 102 3 0 44 0 45 -155 0 -155 0 0 -200z"/>
 <path d="M2810 3830 l0 -200 50 0 49 0 3 153 3 152 105 5 105 5 0 40 0 40 -157 3 -158 3 0 -201z"/>
 <path d="M3190 3830 l0 -200 50 0 50 0 0 200 0 200 -50 0 -50 0 0 -200z"/>
 <path d="M3380 3830 l0 -200 50 0 50 0 0 200 0 200 -50 0 -50 0 0 -200z"/>
 <path d="M3560 3830 l0 -200 53 0 53 0 77 93 c124 151 117 150 117 19 l0 -112 50 0 50 0 0 200 0 200 -52 -1 -53 0 -97 -120 -98 -121 0 121 0 121 -50 0 -50 0 0 -200z"/>
 <path d="M3145 3567 c-8 -12 -15 -26 -15 -32 0 -9 78 -45 171 -80 13 -5 20 3 29 30 7 20 8 40 4 44 -5 5 -46 19 -92 33 l-82 26 -15 -21z"/>
 <path d="M2035 3443 c-40 -8 -113 -37 -265 -104 -85 -37 -213 -89 -285 -115 -337 -120 -446 -224 -481 -460 -22 -149 -36 -184 -131 -335 -64 -102 -98 -193 -112 -304 -9 -71 -15 -411 -13 -785 1 -238 55 -366 228 -545 107 -110 401 -361 462 -393 32 -17 144 -60 248 -96 245 -83 256 -88 341 -153 108 -83 130 -82 293 7 59 32 124 39 162 19 17 -9 20 -9 15 3 -4 13 14 16 111 21 279 14 524 127 718 330 63 66 122 115 204 169 157 104 239 175 288 248 48 71 62 114 62 189 0 46 -6 65 -41 123 l-41 68 11 62 c6 35 34 135 62 223 66 207 67 236 10 375 -36 89 -46 130 -67 275 -13 93 -33 204 -45 245 -28 103 -98 244 -156 312 -141 166 -381 332 -743 517 -141 72 -174 79 -260 52 -78 -25 -104 -26 -161 -5 -142 50 -327 76 -414 57z m-101 -320 c3 -10 37 -150 75 -311 l70 -294 -45 -91 c-60 -119 -74 -137 -167 -213 l-79 -64 -113 0 c-94 0 -114 -3 -119 -16 -14 -36 -6 -43 52 -49 31 -3 77 -8 101 -11 l44 -6 -124 -82 c-97 -64 -123 -87 -121 -102 2 -10 7 -23 12 -28 5 -5 94 41 206 105 l197 113 26 -33 c26 -32 27 -32 44 -13 10 11 17 35 17 61 0 28 8 54 21 73 36 51 199 240 199 231 0 -4 -40 -147 -89 -318 -49 -170 -88 -311 -86 -313 2 -2 20 1 41 7 21 6 39 9 41 7 2 -1 -49 -44 -112 -94 -109 -86 -122 -93 -218 -122 -147 -44 -148 -45 -138 -72 9 -26 12 -26 168 -3 52 8 118 25 150 39 31 15 58 25 60 23 6 -7 -18 -201 -28 -219 -5 -9 -25 -29 -44 -44 -31 -24 -48 -64 -27 -64 5 0 35 17 68 38 l59 39 75 174 74 173 14 -94 c8 -52 15 -153 16 -225 1 -125 0 -132 -27 -177 -28 -48 -88 -103 -245 -223 -90 -69 -105 -91 -78 -114 11 -9 47 9 177 89 89 55 164 98 166 97 1 -2 -2 -19 -7 -37 -8 -27 -7 -38 4 -49 18 -17 46 -7 53 19 8 30 17 25 41 -25 15 -31 22 -64 22 -104 0 -61 12 -77 45 -65 26 10 20 145 -10 229 -14 39 -25 73 -25 77 0 5 57 -35 126 -87 100 -75 130 -93 140 -84 8 6 14 18 14 26 0 8 -49 65 -108 126 -175 182 -172 177 -172 253 0 49 3 65 13 62 6 -3 99 -38 205 -78 l194 -74 29 -57 c33 -66 37 -70 68 -62 20 5 22 10 16 39 -7 40 -8 39 87 18 69 -16 71 -16 91 5 13 13 18 24 12 29 -6 5 -90 39 -187 77 -98 37 -178 71 -178 76 0 4 47 30 106 58 93 45 104 52 95 69 -24 45 -38 47 -101 17 -33 -16 -62 -26 -65 -24 -3 3 3 25 12 48 16 42 16 44 -2 57 -28 21 -36 14 -54 -44 -22 -73 -63 -122 -102 -122 -22 0 -196 76 -217 95 -2 1 0 37 4 78 l7 76 66 3 c65 3 66 3 69 33 3 28 -1 32 -47 52 -34 14 -54 30 -66 53 -21 41 -45 184 -45 269 l0 65 26 -51 c49 -100 135 -162 273 -198 35 -9 89 -17 120 -18 54 -2 56 -1 72 34 18 37 39 46 207 89 43 11 63 33 45 51 -15 15 -261 -39 -302 -67 -20 -13 -42 -24 -50 -24 -24 0 -131 32 -131 39 0 4 32 21 70 38 73 33 82 47 53 81 -18 20 -18 20 -113 -8 -80 -24 -150 -37 -150 -27 0 14 60 310 65 316 3 5 35 13 70 16 48 6 68 12 75 26 20 37 11 59 -37 88 -27 16 -60 39 -75 51 -32 24 -153 189 -145 196 3 3 22 -5 44 -19 48 -30 75 -39 90 -29 7 4 34 102 62 217 28 121 53 209 60 208 5 -2 34 -18 63 -37 29 -18 136 -75 238 -126 212 -106 279 -150 371 -246 96 -102 126 -144 109 -154 -12 -7 -7 -20 25 -66 35 -50 81 -92 188 -169 23 -17 34 -43 72 -179 51 -181 55 -233 29 -404 -14 -93 -21 -113 -50 -151 -18 -24 -41 -63 -50 -87 -16 -42 -16 -49 0 -117 15 -66 15 -77 1 -130 -24 -92 -79 -186 -189 -326 -47 -60 -51 -63 -56 -40 l-6 24 -18 -30 c-122 -199 -218 -289 -398 -375 -146 -70 -306 -100 -533 -100 -100 0 -146 -5 -200 -20 -128 -37 -184 -26 -377 71 -140 70 -241 84 -320 43 l-31 -16 -98 100 c-104 107 -136 129 -201 140 -37 7 -41 11 -63 65 -33 80 -83 161 -191 307 -71 97 -93 135 -99 170 -4 25 -25 117 -48 205 -35 140 -40 174 -40 275 0 65 4 127 11 143 10 22 9 27 -3 27 -42 0 17 165 117 328 22 36 36 68 31 69 -6 2 -5 30 3 71 7 37 17 93 23 124 14 79 33 103 116 143 52 25 107 66 196 146 221 197 340 277 493 330 95 34 103 35 110 12z"/>
 <path d="M1595 2403 c-28 -7 -36 -23 -29 -58 15 -69 69 -109 140 -103 37 3 39 5 42 41 4 46 -27 93 -74 113 -34 14 -45 15 -79 7z"/>
 <path d="M3044 2250 c-53 -21 -95 -108 -79 -162 13 -40 23 -46 61 -38 79 18 129 106 100 175 -16 37 -37 43 -82 25z"/>
 <path d="M1318 2225 c-24 -14 -26 -18 -17 -45 16 -45 63 -80 109 -80 46 0 90 18 90 36 0 78 -107 130 -182 89z"/>
 <path d="M2679 2210 c-39 -38 -38 -83 2 -88 50 -6 100 60 77 102 -14 25 -47 19 -79 -14z"/>
 <path d="M2830 2150 c-11 -11 -20 -31 -20 -45 0 -21 5 -25 28 -25 35 0 62 27 62 63 0 22 -5 27 -25 27 -14 0 -34 -9 -45 -20z"/>
 <path d="M3274 2140 c-37 -15 -75 -70 -72 -104 9 -90 178 -22 178 72 0 36 -55 53 -106 32z"/>
 <path d="M1153 2098 c-32 -16 -28 -45 11 -84 35 -35 70 -43 107 -24 27 15 24 45 -8 79 -32 33 -77 45 -110 29z"/>
 <path d="M2010 1966 c0 -47 60 -76 68 -33 5 23 -25 57 -50 57 -12 0 -18 -7 -18 -24z"/>
 <path d="M1828 1925 c-25 -54 46 -133 79 -89 19 25 9 74 -18 97 -29 24 -47 21 -61 -8z"/>
 <path d="M1253 1880 c-37 -22 -61 -56 -65 -90 -2 -17 6 -30 32 -48 76 -52 197 -1 225 94 15 54 -124 86 -192 44z"/>
 <path d="M2991 1869 c-21 -8 -22 -13 -16 -47 14 -77 103 -132 176 -108 41 13 49 47 24 96 -31 59 -115 87 -184 59z"/>
 <path d="M1637 1849 c-62 -36 -60 -175 4 -209 46 -25 98 52 86 128 -4 19 -19 48 -33 64 -31 31 -32 32 -57 17z"/>
 <path d="M3364 1836 c-38 -17 -70 -60 -79 -108 -8 -43 10 -58 70 -58 75 0 135 57 135 128 0 33 -4 41 -22 46 -36 9 -70 6 -104 -8z"/>
 <path d="M2505 1829 c-12 -18 16 -69 41 -75 44 -11 58 21 28 64 -16 23 -58 30 -69 11z"/>
 <path d="M2755 1760 c-20 -63 66 -144 128 -121 68 26 1 141 -81 141 -32 0 -42 -4 -47 -20z"/>
 <path d="M1789 1704 c-11 -13 -11 -20 2 -42 28 -51 119 -57 119 -8 0 50 -90 87 -121 50z"/>
 <path d="M2613 1675 c-41 -17 -43 -48 -7 -72 35 -22 91 -20 116 5 19 19 19 19 -4 45 -29 33 -64 41 -105 22z"/>
 <path d="M1386 1639 c-50 -39 -18 -89 57 -89 45 0 72 13 88 41 9 17 7 25 -12 45 -30 31 -95 33 -133 3z"/>
 <path d="M1115 1626 c-68 -31 -121 -122 -90 -156 9 -9 32 -22 53 -28 89 -27 194 38 208 130 6 33 4 38 -24 52 -37 19 -106 20 -147 2z"/>
 <path d="M3034 1611 c-44 -27 -64 -59 -64 -103 0 -32 4 -39 26 -44 71 -18 145 27 165 100 9 34 8 42 -7 53 -26 19 -84 16 -120 -6z"/>
 <path d="M3443 1584 c-35 -18 -62 -52 -66 -85 -3 -27 53 -59 103 -59 70 1 168 68 153 105 -18 48 -127 70 -190 39z"/>
 <path d="M2460 1530 c-11 -11 -20 -29 -20 -40 0 -31 55 -27 76 5 32 48 -14 77 -56 35z"/>
 <path d="M1497 1495 c-53 -18 -85 -51 -98 -98 -9 -33 -8 -41 8 -53 66 -50 187 -16 219 62 23 55 18 70 -26 88 -48 19 -54 19 -103 1z"/>
 <path d="M3188 1474 c-36 -19 -48 -62 -23 -81 25 -17 34 -17 71 6 38 23 50 67 23 81 -24 13 -39 12 -71 -6z"/>
 <path d="M1781 1415 c-35 -30 -44 -69 -26 -112 18 -42 45 -43 79 -2 28 33 32 64 15 103 -17 36 -34 39 -68 11z"/>
 <path d="M1219 1356 c-14 -8 -31 -27 -38 -42 -11 -25 -10 -30 6 -42 32 -23 61 -25 95 -5 36 21 59 66 42 83 -18 18 -77 21 -105 6z"/>
 <path d="M3325 1361 c-11 -5 -31 -20 -43 -34 -20 -21 -22 -29 -13 -46 18 -33 68 -54 114 -48 42 6 87 40 87 67 0 44 -94 83 -145 61z"/>
 <path d="M2943 1341 c-17 -11 -34 -30 -38 -42 -15 -45 73 -77 128 -47 49 26 60 67 25 92 -30 21 -76 20 -115 -3z"/>
 <path d="M2162 1324 c-27 -18 -27 -57 0 -62 22 -4 60 34 56 56 -4 23 -28 26 -56 6z"/>
 <path d="M1618 1254 c-15 -8 -32 -23 -38 -34 -15 -29 -12 -91 6 -111 15 -17 19 -17 45 -3 29 15 59 60 59 89 0 20 -28 75 -38 75 -4 -1 -19 -7 -34 -16z"/>
 <path d="M1826 1199 c-31 -25 -35 -65 -6 -74 43 -14 107 49 85 84 -10 18 -50 13 -79 -10z"/>
 <path d="M2008 1189 c-26 -15 -22 -44 8 -68 48 -38 111 -21 94 24 -15 40 -70 64 -102 44z"/>
 <path d="M2518 1173 c-26 -31 -29 -41 -12 -57 33 -34 124 -2 124 44 0 33 -86 43 -112 13z"/>
 <path d="M1328 1160 c-77 -41 -106 -152 -45 -173 83 -27 187 55 187 148 0 46 -76 59 -142 25z"/>
 <path d="M3230 1163 c-34 -13 -70 -45 -70 -63 0 -26 48 -80 87 -96 62 -26 124 -13 168 35 19 22 19 23 1 56 -30 55 -126 90 -186 68z"/>
 <path d="M2666 1095 c-26 -39 -20 -90 13 -127 41 -45 65 -31 69 39 2 42 -1 55 -23 82 -32 37 -38 38 -59 6z"/>
 <path d="M1756 1037 c-16 -12 -17 -16 -3 -49 19 -44 52 -68 95 -68 77 0 93 41 38 96 -27 27 -42 34 -73 34 -22 0 -47 -6 -57 -13z"/>
 <path d="M2866 1014 c-26 -69 23 -153 91 -154 27 0 32 4 38 30 10 45 -3 87 -37 115 -33 28 -83 33 -92 9z"/>
 <path d="M1553 960 c-40 -24 -55 -52 -51 -93 3 -29 6 -32 41 -35 32 -3 43 2 72 31 27 27 35 43 35 70 0 51 -40 62 -97 27z"/>
 <path d="M3074 945 c-16 -64 38 -135 104 -135 35 0 40 3 45 27 12 65 -45 133 -112 133 -24 0 -32 -5 -37 -25z"/>
 <path d="M2167 860 c-28 -22 -43 -74 -32 -109 4 -15 15 -21 35 -21 53 0 96 78 74 134 -9 22 -46 20 -77 -4z"/>
 <path d="M2745 870 c-33 -13 -43 -32 -34 -65 19 -70 107 -115 178 -92 33 12 36 15 35 50 -3 78 -104 138 -179 107z"/>
 <path d="M2515 815 c-33 -32 -35 -100 -4 -139 26 -33 39 -33 70 0 18 19 24 37 24 69 0 32 -6 50 -24 69 -30 32 -36 32 -66 1z"/>
 <path d="M1730 789 c-40 -16 -69 -50 -81 -92 -12 -45 -3 -62 39 -70 72 -15 162 51 162 119 0 28 -5 36 -26 44 -31 12 -61 12 -94 -1z"/>
 <path d="M1991 764 c-30 -38 -28 -98 4 -130 32 -32 60 -19 76 35 13 44 -1 84 -37 108 -20 13 -24 12 -43 -13z"/>
 <path d="M2666 684 c-21 -54 21 -134 70 -134 51 0 52 99 1 135 -28 20 -63 19 -71 -1z"/>
 <path d="M2371 661 c-14 -19 -21 -45 -21 -76 0 -40 5 -52 34 -81 42 -42 61 -43 86 -1 35 56 20 135 -32 171 -32 22 -44 20 -67 -13z"/>
 <path d="M2192 624 c-48 -34 -52 -104 -6 -104 38 0 76 43 72 83 -4 38 -30 47 -66 21z"/>
 </g>

</svg>